<?xml version="1.0" encoding="utf-8"?>
<!-- Generator: Adobe Illustrator 16.0.0, SVG Export Plug-In . SVG Version: 6.00 Build 0)  -->
<!DOCTYPE svg PUBLIC "-//W3C//DTD SVG 1.1//EN" "http://www.w3.org/Graphics/SVG/1.1/DTD/svg11.dtd">
<svg version="1.1" id="Layer_1" xmlns="http://www.w3.org/2000/svg" xmlns:xlink="http://www.w3.org/1999/xlink" x="0px" y="0px"
	 width="600px" height="800px" viewBox="0 0 600 800" enable-background="new 0 0 600 800" xml:space="preserve">
<polygon fill="#554D4E" points="12.502,144.627 12.701,252.77 96.614,348.316 150.12,301.326 250.819,415.982 300.501,372.345 
	193.092,250.044 114.643,264.784 "/>
<polygon fill="#262323" points="111.868,57.356 219.082,71.518 302.994,167.063 249.486,214.055 350.186,328.712 300.501,372.345 
	193.092,250.044 217.832,174.157 "/>
<polygon fill="#554D4E" points="488.131,686.186 380.916,672.023 297.001,576.479 350.51,529.486 249.81,414.83 299.496,371.194 
	406.908,493.498 382.16,569.385 "/>
<polygon fill="#262323" points="587.498,598.918 587.295,490.773 503.381,395.23 449.879,442.219 349.176,327.559 299.496,371.194 
	406.908,493.498 485.35,478.756 "/>
</svg>
