<?xml version="1.0" encoding="utf-8"?>
<!-- Generator: Adobe Illustrator 16.0.0, SVG Export Plug-In . SVG Version: 6.00 Build 0)  -->
<!DOCTYPE svg PUBLIC "-//W3C//DTD SVG 1.1//EN" "http://www.w3.org/Graphics/SVG/1.1/DTD/svg11.dtd">
<svg version="1.1" id="Layer_1" xmlns="http://www.w3.org/2000/svg" xmlns:xlink="http://www.w3.org/1999/xlink" x="0px" y="0px"
	 width="600px" height="800px" viewBox="0 0 600 800" enable-background="new 0 0 600 800" xml:space="preserve">
<polygon fill="#554D4E" points="195.681,307.391 195.726,331.765 214.639,353.299 226.698,342.708 249.394,368.55 260.592,358.715 
	236.383,331.15 218.702,334.473 "/>
<polygon fill="#262323" points="218.077,287.722 242.241,290.914 261.153,312.448 249.094,323.039 271.79,348.881 260.592,358.715 
	236.383,331.15 241.959,314.046 "/>
<polygon fill="#554D4E" points="302.881,429.45 278.716,426.258 259.803,404.724 271.863,394.132 249.167,368.291 260.365,358.456 
	284.574,386.021 278.996,403.125 "/>
<polygon fill="#262323" points="325.276,409.781 325.23,385.407 306.317,363.873 294.259,374.463 271.563,348.621 260.365,358.456 
	284.574,386.021 302.254,382.699 "/>
</svg>
